<svg xmlns="http://www.w3.org/2000/svg" width="31" height="32" viewBox="0 0 31 32">
    <g fill="#ffffff" fill-rule="evenodd">
        <path fill-rule="nonzero" d="M22.185 14.864c-1.705 1.748-4.484 1.748-6.189 0-1.704-1.75-1.704-4.6 0-6.349 1.705-1.748 4.478-1.748 6.189 0 1.71 1.75 1.704 4.6 0 6.349zm-4.988-5.117c-1.045 1.071-1.045 2.82 0 3.891 1.044 1.072 2.749 1.072 3.793 0 1.045-1.071 1.045-2.82 0-3.891-1.044-1.071-2.749-1.071-3.793 0z"/>
        <path fill-rule="nonzero" d="M30.456.899c0-.48-.378-.868-.846-.868-7.833.006-15.204 3.83-19.862 10.282-2.731-1.385-5.864-1.41-8.355-.03-.505.295-.589.966-.193 1.373l5.126 5.258c-.348 1.016-.636 2.038-.852 3.048-.06.29.024.59.228.8l4.55 4.667c.204.21.498.296.78.234.99-.221 1.987-.517 2.972-.874l5.126 5.258c.42.413 1.068.302 1.338-.197 1.35-2.549 1.327-5.769-.03-8.57C26.728 16.5 30.462 8.94 30.456.898zM18.859 20.307c-.366.258-.474.763-.246 1.157 1.183 2.044 1.47 4.427.829 6.46l-4.628-4.748c-.264-.259-.588-.314-.9-.197-.93.363-1.867.659-2.804.893l-3.89-3.99c.223-.96.517-1.921.871-2.876.12-.32.042-.677-.192-.923l-4.628-4.748c1.981-.658 4.304-.369 6.297.85.384.234.87.123 1.128-.252 4.142-6.12 10.846-9.87 18.055-10.147-.27 7.394-3.925 14.272-9.892 18.52z"/>
        <g>
            <path d="M1.477 4.507l2.917-2.992c.33-.339.33-.887 0-1.226-.33-.338-.865-.338-1.195 0L.282 3.282c-.33.338-.33.886 0 1.225.33.339.864.339 1.195 0zM4.85 4.938c-.33-.339-.864-.339-1.195 0L.738 7.931c-.33.338-.33.886 0 1.225.33.338.865.338 1.195 0L4.85 6.163c.33-.338.33-.886 0-1.225zM9.382 5.406c-.33-.339-.865-.339-1.195 0L5.27 8.398c-.33.34-.33.887 0 1.226.33.338.864.338 1.195 0L9.382 6.63c.33-.338.33-.886 0-1.225z" transform="translate(0 21.366)"/>
        </g>
    </g>
</svg>
